<mxfile host="app.diagrams.net" modified="2023-12-26T05:20:22.083Z" agent="Mozilla/5.0 (X11; Linux x86_64) AppleWebKit/537.36 (KHTML, like Gecko) Chrome/120.0.0.0 Safari/537.36" version="22.1.11" etag="xZwh9btwk1vZnwxEt75i" type="github">
  <diagram name="Page-1" id="XXXdVwAd_5QyIGVRwvhc">
    <mxGraphModel>
      <root>
        <mxCell id="0" />
        <mxCell id="1" parent="0" />
      </root>
    </mxGraphModel>
  </diagram>
</mxfile>
